<svg width="9" height="6" viewBox="0 0 9 6" fill="none" xmlns="http://www.w3.org/2000/svg">
<path d="M6.63729 0.440282L7.29968 1.18554L5.05536 3.70993L3.54397 2.00882C3.50194 1.96096 3.45146 1.92287 3.39557 1.89685C3.33968 1.87083 3.27955 1.85742 3.21878 1.85742C3.15801 1.85742 3.09787 1.87083 3.04198 1.89685C2.9861 1.92287 2.93562 1.96096 2.89359 2.00882L0.134463 5.11862C0.0481726 5.21683 0 5.34759 0 5.48361C0 5.61963 0.0481726 5.75039 0.134463 5.8486C0.176494 5.89646 0.226973 5.93455 0.282861 5.96057C0.338748 5.98659 0.398887 6 0.459654 6C0.520422 6 0.580561 5.98659 0.636448 5.96057C0.692336 5.93455 0.742815 5.89646 0.784846 5.8486L3.21728 3.10489L4.73017 4.80818C4.7722 4.85604 4.82268 4.89413 4.87856 4.92015C4.93445 4.94617 4.99459 4.95958 5.05536 4.95958C5.11613 4.95958 5.17627 4.94617 5.23215 4.92015C5.28804 4.89413 5.33852 4.85604 5.38055 4.80818L7.94656 1.92044L8.60895 2.6657C8.64116 2.70104 8.68235 2.72504 8.7272 2.73461C8.77204 2.74418 8.81849 2.73887 8.86054 2.71937C8.9026 2.69988 8.93833 2.66709 8.96313 2.62524C8.98793 2.58338 9.00066 2.53438 8.99968 2.48456V0.258604C9.00131 0.22537 8.99672 0.192123 8.9862 0.160881C8.97568 0.12964 8.95945 0.101057 8.93849 0.0768697C8.91752 0.0526824 8.89227 0.0333955 8.86426 0.020181C8.83625 0.00696659 8.80607 0.000100541 8.77555 0H6.80289C6.75659 0.00116195 6.71161 0.0170177 6.67345 0.0456265C6.63529 0.0742353 6.60561 0.114356 6.58804 0.161077C6.57047 0.207798 6.56577 0.259093 6.57451 0.308682C6.58326 0.358272 6.60508 0.404004 6.63729 0.440282Z" fill="#519F2E"/>
</svg>
