<svg width="104" height="28" viewBox="0 0 104 28" fill="none" xmlns="http://www.w3.org/2000/svg">
<path d="M102 26.4143C102 26.4143 98.5451 20.7513 95.0898 20.7513C91.6345 20.7513 92.4023 26.4148 88.1786 26.4148C83.9549 26.4148 83.1235 24.8449 78.1965 20.7518C73.2695 16.6587 74.1008 9.66462 68.47 10.0304C62.8392 10.4046 61.5591 23.5832 55.6723 22.245C49.7856 20.9068 49.209 8.17331 44.9223 4.67071C40.6344 1.17305 42.3624 8.8384 38.5231 8.24022C34.6838 7.65058 34.3645 0.496589 29.5648 2.28673C24.765 4.07686 23.8056 13.4558 19.3267 15.3922C14.8475 17.3329 17.8523 10.1922 12.7066 10.2998C6.52638 10.4009 8.98811 4.18047 2.0332 4.67124" stroke="#5C6BC0" stroke-width="3" stroke-linecap="round"/>
</svg>
