<svg width="16" height="16" viewBox="0 0 16 16" fill="none" xmlns="http://www.w3.org/2000/svg">
<path d="M8 0.5C9.48336 0.5 10.9334 0.939867 12.1668 1.76398C13.4001 2.58809 14.3614 3.75943 14.9291 5.12987C15.4968 6.50032 15.6453 8.00832 15.3559 9.46318C15.0665 10.918 14.3522 12.2544 13.3033 13.3033C12.2544 14.3522 10.918 15.0665 9.46318 15.3559C8.00832 15.6453 6.50032 15.4968 5.12987 14.9291C3.75943 14.3614 2.58809 13.4001 1.76398 12.1668C0.939867 10.9334 0.5 9.48336 0.5 8C0.5 6.01088 1.29018 4.10322 2.6967 2.6967C4.10322 1.29018 6.01088 0.5 8 0.5Z" fill="#FF0076"/>
</svg>
