<svg width="16" height="16" viewBox="0 0 16 16" fill="none" xmlns="http://www.w3.org/2000/svg">
<path d="M8 16C12.4183 16 16 12.4183 16 8C16 3.58172 12.4183 0 8 0C3.58172 0 0 3.58172 0 8C0 12.4183 3.58172 16 8 16Z" fill="white"/>
<mask id="mask0_1_2400" style="mask-type:luminance" maskUnits="userSpaceOnUse" x="0" y="0" width="16" height="16">
<path d="M15.0423 0.999084H0.952332V15.0401H15.0423V0.999084Z" fill="white"/>
</mask>
<g mask="url(#mask0_1_2400)">
<path d="M15.0184 8.00859C15.0183 6.66455 14.6331 5.34867 13.9084 4.21674C13.1837 3.08482 12.1498 2.18426 10.9292 1.62169C9.70853 1.05912 8.35224 0.858086 7.02089 1.0424C5.68954 1.22672 4.43889 1.78866 3.41699 2.6617C2.3951 3.53474 1.64477 4.68231 1.25483 5.96855C0.864888 7.25479 0.851674 8.62582 1.21675 9.91934C1.58183 11.2129 2.3099 12.3747 3.31478 13.2672C4.31966 14.1598 5.55925 14.7458 6.8868 14.9557V10.0415H5.10189V8.00859H6.8868V6.45863C6.84854 6.09657 6.89041 5.73052 7.00942 5.38645C7.12843 5.04238 7.32168 4.7287 7.57546 4.46765C7.82924 4.2066 8.13735 4.00458 8.47792 3.87591C8.8185 3.74723 9.18322 3.69505 9.54621 3.72307C10.0735 3.73033 10.5995 3.77613 11.1201 3.86012V5.59065H10.2315C10.0803 5.57043 9.92649 5.58451 9.7815 5.63185C9.63651 5.67918 9.50404 5.75856 9.39391 5.86409C9.28379 5.96961 9.19884 6.09858 9.14537 6.24143C9.0919 6.38427 9.07127 6.53732 9.08503 6.68922V8.00859H11.0353L10.7231 10.0415H9.08503V14.9557C10.7391 14.6936 12.2454 13.85 13.3331 12.5765C14.4207 11.3031 15.0183 9.68332 15.0184 8.00859Z" fill="#1877F2"/>
<path d="M10.7247 10.0403L11.0368 8.00743H9.08658V6.68805C9.07282 6.53615 9.09345 6.3831 9.14692 6.24025C9.2004 6.09741 9.28536 5.96845 9.39548 5.86292C9.5056 5.75739 9.63806 5.67802 9.78305 5.63068C9.92804 5.58334 10.0818 5.56925 10.233 5.58947H11.1195V3.85896C10.5989 3.77497 10.0729 3.72916 9.54558 3.7219C9.18275 3.69436 8.81829 3.74693 8.47804 3.87589C8.13778 4.00485 7.83006 4.20705 7.57662 4.46817C7.32319 4.72928 7.13025 5.04292 7.0115 5.38687C6.89275 5.73083 6.85109 6.0967 6.88945 6.45855V8.00743H5.10236V10.0403H6.88835V14.9545C7.61666 15.0685 8.35827 15.0685 9.08658 14.9545V10.0403H10.7247Z" fill="white"/>
</g>
</svg>
